<svg width="32" height="32" viewBox="0 0 32 32" fill="none" xmlns="http://www.w3.org/2000/svg">
<rect x="10" y="8" width="15" height="15" fill="none"/>
<path d="M25 4C26.6569 4 28 5.34315 28 7V25C28 26.6569 26.6569 28 25 28H7C5.34315 28 4 26.6569 4 25V7C4 5.34315 5.34315 4 7 4H25ZM14.5 10.25C13.9477 10.25 13.5 10.6977 13.5 11.25V17.25C13.5 18.3546 14.3954 19.25 15.5 19.25H20.5C21.0523 19.25 21.5 18.8023 21.5 18.25V17.25C21.5 16.6977 21.0523 16.25 20.5 16.25H16.5V11.25C16.5 10.6977 16.0523 10.25 15.5 10.25H14.5Z" fill="#bebebe"/>
</svg>
